<svg width="1054" height="1163" viewBox="0 0 1054 1163" fill="none" xmlns="http://www.w3.org/2000/svg">
<path d="M65 1151.07L65 -80.5708" stroke="#C4C4C4" stroke-opacity="0.35" stroke-linecap="round"/>
<path d="M115 1151.07L115 -80.5708" stroke="#C4C4C4" stroke-opacity="0.35" stroke-linecap="round"/>
<path d="M165 1151.07L165 -80.5708" stroke="#C4C4C4" stroke-opacity="0.35" stroke-linecap="round"/>
<path d="M215.5 1157.14L215.5 -74.4976" stroke="#C4C4C4" stroke-opacity="0.35" stroke-linecap="round"/>
<path d="M265.5 1157.14L265.5 -74.4976" stroke="#C4C4C4" stroke-opacity="0.35" stroke-linecap="round"/>
<path d="M315.5 1157.14L315.5 -74.4976" stroke="#C4C4C4" stroke-opacity="0.35" stroke-linecap="round"/>
<path d="M363.5 1148.64L363.5 -83" stroke="#C4C4C4" stroke-opacity="0.35" stroke-linecap="round"/>
<path d="M413.5 1148.64L413.5 -83" stroke="#C4C4C4" stroke-opacity="0.35" stroke-linecap="round"/>
<path d="M463.5 1148.64L463.5 -83" stroke="#C4C4C4" stroke-opacity="0.35" stroke-linecap="round"/>
<path d="M514 1154.71L514 -76.9269" stroke="#C4C4C4" stroke-opacity="0.35" stroke-linecap="round"/>
<path d="M564 1154.71L564 -76.9269" stroke="#C4C4C4" stroke-opacity="0.35" stroke-linecap="round"/>
<path d="M614 1154.71L614 -76.9269" stroke="#C4C4C4" stroke-opacity="0.35" stroke-linecap="round"/>
<path d="M664.5 1155.93L664.5 -75.7122" stroke="#C4C4C4" stroke-opacity="0.35" stroke-linecap="round"/>
<path d="M714.5 1155.93L714.5 -75.7122" stroke="#C4C4C4" stroke-opacity="0.35" stroke-linecap="round"/>
<path d="M764.5 1155.93L764.5 -75.7122" stroke="#C4C4C4" stroke-opacity="0.35" stroke-linecap="round"/>
<path d="M815 1162L815 -69.6391" stroke="#C4C4C4" stroke-opacity="0.35" stroke-linecap="round"/>
<path d="M865 1162L865 -69.6391" stroke="#C4C4C4" stroke-opacity="0.35" stroke-linecap="round"/>
<path d="M915 1162L915 -69.6391" stroke="#C4C4C4" stroke-opacity="0.35" stroke-linecap="round"/>
<path d="M963 1153.5L963 -78.1415" stroke="#C4C4C4" stroke-opacity="0.35" stroke-linecap="round"/>
<path d="M1013 1153.5L1013 -78.1415" stroke="#C4C4C4" stroke-opacity="0.35" stroke-linecap="round"/>
<path d="M1203.35 1103.5L3.36674 1103.5" stroke="#C4C4C4" stroke-opacity="0.35" stroke-linecap="round"/>
<path d="M1203.35 1053.5L3.36674 1053.5" stroke="#C4C4C4" stroke-opacity="0.35" stroke-linecap="round"/>
<path d="M1203.35 1003.5L3.36674 1003.5" stroke="#C4C4C4" stroke-opacity="0.35" stroke-linecap="round"/>
<path d="M1209.27 953L9.28422 953" stroke="#C4C4C4" stroke-opacity="0.35" stroke-linecap="round"/>
<path d="M1209.27 903L9.28422 903" stroke="#C4C4C4" stroke-opacity="0.35" stroke-linecap="round"/>
<path d="M1209.27 853L9.28422 853" stroke="#C4C4C4" stroke-opacity="0.35" stroke-linecap="round"/>
<path d="M1200.98 805L1.00004 805" stroke="#C4C4C4" stroke-opacity="0.35" stroke-linecap="round"/>
<path d="M1200.98 755L1.00004 755" stroke="#C4C4C4" stroke-opacity="0.35" stroke-linecap="round"/>
<path d="M1200.98 705L1.00004 705" stroke="#C4C4C4" stroke-opacity="0.35" stroke-linecap="round"/>
<path d="M1206.9 654.5L6.91703 654.5" stroke="#C4C4C4" stroke-opacity="0.35" stroke-linecap="round"/>
<path d="M1206.9 604.5L6.91703 604.5" stroke="#C4C4C4" stroke-opacity="0.35" stroke-linecap="round"/>
<path d="M1206.9 554.5L6.91703 554.5" stroke="#C4C4C4" stroke-opacity="0.35" stroke-linecap="round"/>
<path d="M1208.08 504L8.10063 504" stroke="#C4C4C4" stroke-opacity="0.35" stroke-linecap="round"/>
<path d="M1208.08 454L8.10063 454" stroke="#C4C4C4" stroke-opacity="0.35" stroke-linecap="round"/>
<path d="M1208.08 404L8.10063 404" stroke="#C4C4C4" stroke-opacity="0.35" stroke-linecap="round"/>
<path d="M1214 353.5L14.0176 353.5" stroke="#C4C4C4" stroke-opacity="0.35" stroke-linecap="round"/>
<path d="M1214 303.5L14.0176 303.5" stroke="#C4C4C4" stroke-opacity="0.35" stroke-linecap="round"/>
<path d="M1214 253.5L14.0176 253.5" stroke="#C4C4C4" stroke-opacity="0.35" stroke-linecap="round"/>
<path d="M1205.72 205.5L5.73344 205.5" stroke="#C4C4C4" stroke-opacity="0.35" stroke-linecap="round"/>
<path d="M1205.72 155.5L5.73344 155.5" stroke="#C4C4C4" stroke-opacity="0.35" stroke-linecap="round"/>
<path d="M1205.72 105.5L5.73344 105.5" stroke="#C4C4C4" stroke-opacity="0.35" stroke-linecap="round"/>
<path d="M1211.63 55L11.6509 55" stroke="#C4C4C4" stroke-opacity="0.35" stroke-linecap="round"/>
<path d="M1211.63 5L11.6509 5" stroke="#C4C4C4" stroke-opacity="0.35" stroke-linecap="round"/>
</svg>
