<svg width="875" height="879" viewBox="0 0 875 879" fill="none" xmlns="http://www.w3.org/2000/svg">
<path fill-rule="evenodd" clip-rule="evenodd" d="M572.092 735.354C586.329 804.201 648.035 856 722 856C806.5 856 875 788.395 875 705C875 666.089 860.088 630.616 835.596 603.844C829.97 596.331 823.386 587.7 816.067 578.107C743.088 482.44 597.067 291.026 600 158L599.813 158.083C599.937 155.571 600 153.043 600 150.5C600 67.3812 532.843 5.09078e-05 450 5.09078e-05C367.157 5.09078e-05 300 67.3812 300 150.5C300 200.973 324.764 245.643 362.766 272.946C482.243 373.874 531.406 572.638 559.533 686.355C564.229 705.343 568.339 721.96 572.092 735.354Z" fill="url(#paint0_linear)"/>
<circle cx="150" cy="729" r="150" transform="rotate(-180 150 729)" fill="url(#paint1_linear)"/>
<defs>
<linearGradient id="paint0_linear" x1="758.862" y1="648.753" x2="366.128" y2="83.3477" gradientUnits="userSpaceOnUse">
<stop offset="0.203125" stop-color="#4299E1"/>
<stop offset="1" stop-color="#BEE3F8"/>
</linearGradient>
<linearGradient id="paint1_linear" x1="4.13741e-06" y1="538" x2="248" y2="1065" gradientUnits="userSpaceOnUse">
<stop offset="0.270833" stop-color="#4299E1"/>
<stop offset="0.708333" stop-color="#BEE3F8"/>
</linearGradient>
</defs>
</svg>
